#N canvas 919 822 761 538 10;
#X obj -13 227 tgl 15 0 empty empty empty 17 7 0 10 -262144 -1 -1 0
1;
#X obj 422 474 dac~;
#X obj 171 261 nbx 5 14 -1e+37 1e+37 0 0 empty empty empty 0 -8 0 10
-262144 -1 -1 440 256;
#X obj 422 297 sig~;
#X obj 171 285 s freq;
#X obj 422 267 r freq;
#X obj 422 328 osc~;
#X msg 502 64 440;
#X obj 449 402 r volume;
#X obj 583 201 metro 200;
#X obj 501 36 loadbang;
#X obj 422 377 *~;
#X obj 422 434 *~ 0.25;
#X obj 78 229 vsl 15 128 0 127 0 0 empty empty empty 0 -9 0 10 -262144
-1 -1 5600 1;
#X obj 78 396 s volume;
#X obj 176 368 s interval;
#X obj 635 163 r interval;
#X floatatom 176 345 5 0 0 0 - - -, f 5;
#X obj 78 368 * 0.0078;
#X obj -13 255 s enable;
#X obj 574 164 r enable;
#X text -24 201 Ein/Aus;
#X text 51 202 Lautstärke;
#X text 169 318 Taktfrequenz (ms);
#X text 169 230 Tonfrequenz (Hz);
#X text 459 309 Synthesizer;
#X text -2 12 Einfacher Synthesizer Patch \, welcher einen Piepston
generiert. Parameter: enable -> Ein/Aus volume -> Lautstärke freq
-> Tonfrequenz (Hz) interval -> Taktfrequenz (ms);
#X obj 502 94 s defaultFreq;
#X obj 288 234 r defaultFreq;
#X text 497 6 Default Frequenz;
#X obj 549 340 line~;
#X msg 551 272 1 10;
#X msg 580 309 0 10;
#X obj 562 234 t b b;
#X obj 600 275 delay 100;
#X connect 0 0 19 0;
#X connect 2 0 4 0;
#X connect 3 0 6 0;
#X connect 5 0 3 0;
#X connect 6 0 11 0;
#X connect 7 0 27 0;
#X connect 8 0 12 1;
#X connect 9 0 33 0;
#X connect 10 0 7 0;
#X connect 11 0 12 0;
#X connect 12 0 1 0;
#X connect 12 0 1 1;
#X connect 13 0 18 0;
#X connect 16 0 9 1;
#X connect 17 0 15 0;
#X connect 18 0 14 0;
#X connect 20 0 9 0;
#X connect 28 0 2 0;
#X connect 30 0 11 1;
#X connect 31 0 30 0;
#X connect 32 0 30 0;
#X connect 33 0 34 0;
#X connect 33 1 31 0;
#X connect 34 0 32 0;
