#N canvas 875 253 755 534 10;
#X obj 38 103 tgl 15 0 empty empty empty 17 7 0 10 -262144 -1 -1 0
1;
#X obj 38 131 s mute;
#X obj 343 41 r mute;
#X obj 254 244 dac~;
#X obj -31 79 nbx 5 14 -1e+37 1e+37 0 0 empty empty empty 0 -8 0 10
-262144 -1 -1 440 256;
#X obj 256 48 sig~;
#X obj -31 127 s freq;
#X obj 257 14 r freq;
#X obj 256 76 osc~;
#X msg -32 30 440;
#X obj 270 152 r volume;
#X obj 387 81 metro 200;
#X msg 385 113 1;
#X obj 432 130 delay 100;
#X msg 396 153 0;
#X obj -31 4 loadbang;
#X obj 255 111 *~;
#X obj 258 205 *~ 0.25;
#X obj 90 -9 vsl 15 128 0 127 0 0 empty empty empty 0 -9 0 10 -262144
-1 -1 7000 1;
#X obj 92 227 s volume;
#X obj 115 153 s interval;
#X obj 400 26 r interval;
#X floatatom 131 104 5 0 0 0 - - -, f 5;
#X obj 92 191 * 0.0078;
#X connect 0 0 1 0;
#X connect 2 0 11 0;
#X connect 4 0 6 0;
#X connect 5 0 8 0;
#X connect 7 0 5 0;
#X connect 8 0 16 0;
#X connect 9 0 4 0;
#X connect 10 0 17 1;
#X connect 11 0 12 0;
#X connect 11 0 13 0;
#X connect 12 0 16 1;
#X connect 13 0 14 0;
#X connect 14 0 16 1;
#X connect 15 0 9 0;
#X connect 16 0 17 0;
#X connect 17 0 3 0;
#X connect 17 0 3 1;
#X connect 18 0 23 0;
#X connect 21 0 11 1;
#X connect 22 0 20 0;
#X connect 23 0 19 0;
